<svg width="160" height="24" viewBox="0 0 160 24" fill="none" xmlns="http://www.w3.org/2000/svg">
<path d="M8.98386 3.52798C10.1679 3.52798 11.2799 3.75198 12.3199 4.19998C13.3599 4.64798 14.2799 5.28798 15.0799 6.11998C15.8799 6.93598 16.5039 7.90398 16.9519 9.02398C17.4159 10.128 17.6479 11.344 17.6479 12.672C17.6479 12.944 17.6239 13.32 17.5759 13.8C17.5439 14.264 17.4639 14.76 17.3359 15.288C17.2079 15.816 17.0159 16.32 16.7599 16.8C16.5199 17.264 16.1839 17.648 15.7519 17.952C15.3359 18.24 14.8159 18.384 14.1919 18.384C13.6639 18.384 13.2639 18.272 12.9919 18.048C12.7359 17.84 12.5599 17.568 12.4639 17.232C12.3679 16.88 12.2959 16.504 12.2479 16.104C11.8319 16.568 11.2639 16.968 10.5439 17.304C9.82386 17.64 9.04785 17.808 8.21585 17.808C7.11186 17.808 6.23986 17.512 5.59986 16.92C4.95986 16.328 4.63986 15.576 4.63986 14.664C4.63986 13.864 4.86386 13.24 5.31186 12.792C5.75986 12.328 6.31986 12 6.99186 11.808C7.66386 11.616 8.35186 11.52 9.05586 11.52C9.75986 11.52 10.3919 11.592 10.9519 11.736C11.5119 11.864 11.9199 11.976 12.1759 12.072C12.1759 11.272 12.0879 10.568 11.9119 9.95998C11.7359 9.33598 11.4239 8.84798 10.9759 8.49598C10.5439 8.14398 9.92786 7.96798 9.12786 7.96798C8.51986 7.96798 7.91986 8.07198 7.32786 8.27998C6.75186 8.47198 6.22386 8.75198 5.74386 9.11998L5.35986 8.37598C5.93586 8.00798 6.54386 7.71198 7.18386 7.48798C7.82386 7.24798 8.50386 7.12798 9.22386 7.12798C10.0879 7.12798 10.7679 7.27198 11.2639 7.55998C11.7759 7.84798 12.1519 8.23198 12.3919 8.71198C12.6479 9.17598 12.8159 9.70398 12.8959 10.296C12.9919 10.872 13.0399 11.448 13.0399 12.024V15.336C13.0399 15.8 13.0639 16.208 13.1119 16.56C13.1759 16.912 13.2959 17.184 13.4719 17.376C13.6479 17.552 13.9199 17.64 14.2879 17.64C14.7999 17.64 15.2239 17.472 15.5599 17.136C15.9119 16.8 16.1839 16.368 16.3759 15.84C16.5679 15.312 16.7039 14.76 16.7839 14.184C16.8799 13.608 16.9279 13.096 16.9279 12.648C16.9279 11.464 16.7199 10.368 16.3039 9.35998C15.9039 8.33598 15.3359 7.43998 14.5999 6.67198C13.8799 5.90398 13.0399 5.30398 12.0799 4.87198C11.1199 4.43998 10.0799 4.22398 8.95986 4.22398C7.87186 4.22398 6.83986 4.43198 5.86386 4.84798C4.88786 5.24798 4.02386 5.81598 3.27186 6.55198C2.53586 7.28798 1.95186 8.15998 1.51986 9.16798C1.08786 10.176 0.871855 11.28 0.871855 12.48C0.871855 13.632 1.07186 14.712 1.47186 15.72C1.88786 16.728 2.45586 17.608 3.17586 18.36C3.91186 19.128 4.75986 19.728 5.71986 20.16C6.69586 20.592 7.74386 20.808 8.86386 20.808C9.51986 20.808 10.1519 20.728 10.7599 20.568C11.3679 20.408 11.9599 20.184 12.5359 19.896L12.8239 20.544C12.1839 20.864 11.5279 21.104 10.8559 21.264C10.1999 21.424 9.53586 21.504 8.86386 21.504C7.66386 21.504 6.53586 21.272 5.47986 20.808C4.43986 20.36 3.51986 19.728 2.71986 18.912C1.91986 18.112 1.28786 17.16 0.823856 16.056C0.375856 14.952 0.151855 13.76 0.151855 12.48C0.151855 11.136 0.391855 9.91998 0.871855 8.83198C1.36786 7.72798 2.02386 6.78398 2.83986 5.99998C3.67186 5.21598 4.61586 4.60798 5.67186 4.17598C6.72786 3.74398 7.83186 3.52798 8.98386 3.52798ZM10.5199 16.464C10.9999 16.224 11.3519 15.968 11.5759 15.696C11.8159 15.408 11.9679 15.104 12.0319 14.784C12.1119 14.464 12.1519 14.152 12.1519 13.848V12.84C11.9599 12.824 11.5839 12.728 11.0239 12.552C10.4799 12.376 9.79986 12.288 8.98386 12.288C8.39186 12.288 7.83186 12.36 7.30386 12.504C6.77586 12.632 6.34386 12.872 6.00786 13.224C5.68786 13.56 5.52786 14.024 5.52786 14.616C5.52786 15.112 5.64786 15.536 5.88786 15.888C6.14386 16.24 6.47186 16.512 6.87186 16.704C7.28786 16.896 7.75185 16.992 8.26385 16.992C8.66386 16.992 9.06386 16.944 9.46386 16.848C9.86386 16.736 10.2159 16.608 10.5199 16.464Z" fill="white"/>
<path d="M19.8555 14.4C19.8555 13.648 20.0795 13 20.5275 12.456C20.9755 11.896 21.5915 11.464 22.3755 11.16C23.1595 10.84 24.0635 10.68 25.0875 10.68C25.7275 10.68 26.3915 10.736 27.0795 10.848C27.7675 10.96 28.3835 11.112 28.9275 11.304V10.128C28.9275 8.97598 28.5915 8.05598 27.9195 7.36798C27.2635 6.67998 26.3515 6.33598 25.1835 6.33598C24.5595 6.33598 23.9115 6.46398 23.2395 6.71998C22.5675 6.97598 21.8795 7.34398 21.1755 7.82398L20.6715 6.95998C21.4875 6.41598 22.2715 6.00798 23.0235 5.73598C23.7915 5.44798 24.5515 5.30398 25.3035 5.30398C26.7915 5.30398 27.9675 5.74398 28.8315 6.62398C29.6955 7.50398 30.1275 8.70398 30.1275 10.224V16.416C30.1275 16.608 30.1675 16.752 30.2475 16.848C30.3435 16.944 30.4795 17 30.6555 17.016V18C30.5115 18.016 30.3915 18.024 30.2955 18.024C30.1995 18.024 30.1195 18.024 30.0555 18.024C29.7515 17.976 29.5115 17.848 29.3355 17.64C29.1755 17.432 29.0875 17.2 29.0715 16.944V15.96C28.4955 16.68 27.7515 17.24 26.8395 17.64C25.9435 18.04 24.9995 18.24 24.0075 18.24C23.2235 18.24 22.5115 18.072 21.8715 17.736C21.2475 17.4 20.7515 16.944 20.3835 16.368C20.0315 15.776 19.8555 15.12 19.8555 14.4ZM28.4475 15.432C28.6075 15.224 28.7275 15.024 28.8075 14.832C28.8875 14.64 28.9275 14.464 28.9275 14.304V12.24C28.3515 12.016 27.7515 11.848 27.1275 11.736C26.5035 11.624 25.8635 11.568 25.2075 11.568C23.9595 11.568 22.9435 11.816 22.1595 12.312C21.3915 12.808 21.0075 13.48 21.0075 14.328C21.0075 14.856 21.1435 15.344 21.4155 15.792C21.6875 16.24 22.0635 16.6 22.5435 16.872C23.0395 17.144 23.6075 17.28 24.2475 17.28C25.1435 17.28 25.9675 17.112 26.7195 16.776C27.4875 16.424 28.0635 15.976 28.4475 15.432Z" fill="white"/>
<path d="M39.6821 6.59998C38.5621 6.63198 37.5781 6.96798 36.7301 7.60798C35.8981 8.23198 35.3141 9.09598 34.9781 10.2V18H33.7781V5.51998H34.9301V8.59198C35.3621 7.71198 35.9381 6.99998 36.6581 6.45598C37.3781 5.89598 38.1381 5.57598 38.9381 5.49598C39.0981 5.47998 39.2421 5.47198 39.3701 5.47198C39.4981 5.47198 39.6021 5.47198 39.6821 5.47198V6.59998Z" fill="white"/>
<path d="M47.5258 17.4C47.4458 17.432 47.2858 17.512 47.0458 17.64C46.8058 17.768 46.5018 17.888 46.1338 18C45.7658 18.096 45.3578 18.144 44.9098 18.144C44.4778 18.144 44.0698 18.064 43.6858 17.904C43.3178 17.728 43.0218 17.472 42.7978 17.136C42.5738 16.8 42.4618 16.392 42.4618 15.912V6.50398H40.7098V5.51998H42.4618V1.24798H43.6618V5.51998H46.5658V6.50398H43.6618V15.624C43.6938 16.088 43.8618 16.44 44.1658 16.68C44.4698 16.904 44.8218 17.016 45.2218 17.016C45.7178 17.016 46.1498 16.936 46.5178 16.776C46.8858 16.6 47.1018 16.488 47.1658 16.44L47.5258 17.4Z" fill="white"/>
<path d="M50.0053 18V0.95998H57.0133C57.7333 0.95998 58.3893 1.11198 58.9813 1.41598C59.5893 1.71998 60.1173 2.12798 60.5653 2.63998C61.0133 3.13598 61.3573 3.69598 61.5973 4.31998C61.8533 4.94398 61.9813 5.58398 61.9813 6.23998C61.9813 7.15198 61.7733 8.01598 61.3573 8.83198C60.9573 9.63198 60.3973 10.288 59.6773 10.8C58.9733 11.312 58.1333 11.568 57.1573 11.568H51.2293V18H50.0053ZM51.2293 10.44H57.1093C57.8613 10.44 58.5093 10.24 59.0533 9.83998C59.5973 9.43998 60.0133 8.91998 60.3013 8.27998C60.5893 7.63998 60.7333 6.95998 60.7333 6.23998C60.7333 5.48798 60.5573 4.79998 60.2053 4.17598C59.8693 3.53598 59.4133 3.02398 58.8373 2.63998C58.2773 2.25598 57.6533 2.06398 56.9653 2.06398H51.2293V10.44Z" fill="white"/>
<path d="M69.6446 18.24C68.7646 18.24 67.9486 18.072 67.1966 17.736C66.4446 17.384 65.7886 16.912 65.2286 16.32C64.6846 15.712 64.2526 15.016 63.9326 14.232C63.6286 13.432 63.4766 12.592 63.4766 11.712C63.4766 10.528 63.7406 9.45598 64.2686 8.49598C64.7966 7.53598 65.5246 6.76798 66.4526 6.19198C67.3806 5.59998 68.4206 5.30398 69.5726 5.30398C70.7566 5.30398 71.8046 5.59998 72.7166 6.19198C73.6286 6.78398 74.3486 7.56798 74.8766 8.54398C75.4206 9.50398 75.6926 10.56 75.6926 11.712C75.6926 11.808 75.6926 11.904 75.6926 12C75.6926 12.096 75.6846 12.176 75.6686 12.24H64.7246C64.7886 13.184 65.0526 14.04 65.5166 14.808C65.9806 15.576 66.5726 16.184 67.2926 16.632C68.0286 17.064 68.8286 17.28 69.6926 17.28C70.5566 17.28 71.3726 17.056 72.1406 16.608C72.9086 16.16 73.4446 15.584 73.7486 14.88L74.8046 15.168C74.5646 15.76 74.1806 16.288 73.6526 16.752C73.1406 17.216 72.5326 17.584 71.8286 17.856C71.1406 18.112 70.4126 18.24 69.6446 18.24ZM64.6766 11.304H74.5406C74.4766 10.328 74.2206 9.46398 73.7726 8.71198C73.3246 7.95998 72.7326 7.36798 71.9966 6.93598C71.2766 6.50398 70.4766 6.28798 69.5966 6.28798C68.7166 6.28798 67.9166 6.50398 67.1966 6.93598C66.4766 7.36798 65.8926 7.95998 65.4446 8.71198C64.9966 9.46398 64.7406 10.328 64.6766 11.304Z" fill="white"/>
<path d="M83.807 17.4C83.727 17.432 83.567 17.512 83.327 17.64C83.087 17.768 82.783 17.888 82.415 18C82.047 18.096 81.639 18.144 81.191 18.144C80.759 18.144 80.351 18.064 79.967 17.904C79.599 17.728 79.303 17.472 79.079 17.136C78.855 16.8 78.743 16.392 78.743 15.912V6.50398H76.991V5.51998H78.743V1.24798H79.943V5.51998H82.847V6.50398H79.943V15.624C79.975 16.088 80.143 16.44 80.447 16.68C80.751 16.904 81.103 17.016 81.503 17.016C81.999 17.016 82.431 16.936 82.799 16.776C83.167 16.6 83.383 16.488 83.447 16.44L83.807 17.4Z" fill="white"/>
<path d="M91.8305 6.59998C90.7105 6.63198 89.7265 6.96798 88.8785 7.60798C88.0465 8.23198 87.4625 9.09598 87.1265 10.2V18H85.9265V5.51998H87.0785V8.59198C87.5105 7.71198 88.0865 6.99998 88.8065 6.45598C89.5265 5.89598 90.2865 5.57598 91.0865 5.49598C91.2465 5.47998 91.3905 5.47198 91.5185 5.47198C91.6465 5.47198 91.7505 5.47198 91.8305 5.47198V6.59998Z" fill="white"/>
<path d="M98.846 18.24C97.966 18.24 97.15 18.072 96.398 17.736C95.662 17.4 95.022 16.936 94.478 16.344C93.934 15.736 93.51 15.04 93.206 14.256C92.902 13.472 92.75 12.648 92.75 11.784C92.75 10.904 92.902 10.08 93.206 9.31198C93.51 8.52798 93.934 7.83998 94.478 7.24798C95.038 6.63998 95.686 6.16798 96.422 5.83198C97.174 5.47998 97.982 5.30398 98.846 5.30398C99.71 5.30398 100.51 5.47998 101.246 5.83198C101.982 6.16798 102.63 6.63998 103.19 7.24798C103.75 7.83998 104.182 8.52798 104.486 9.31198C104.79 10.08 104.942 10.904 104.942 11.784C104.942 12.648 104.79 13.472 104.486 14.256C104.182 15.04 103.75 15.736 103.19 16.344C102.646 16.936 101.998 17.4 101.246 17.736C100.51 18.072 99.71 18.24 98.846 18.24ZM93.95 11.832C93.95 12.808 94.166 13.704 94.598 14.52C95.046 15.32 95.638 15.96 96.374 16.44C97.11 16.92 97.926 17.16 98.822 17.16C99.718 17.16 100.534 16.92 101.27 16.44C102.022 15.944 102.614 15.288 103.046 14.472C103.494 13.64 103.718 12.736 103.718 11.76C103.718 10.784 103.494 9.88798 103.046 9.07198C102.614 8.25598 102.022 7.60798 101.27 7.12798C100.534 6.63198 99.726 6.38398 98.846 6.38398C97.95 6.38398 97.134 6.63198 96.398 7.12798C95.662 7.62398 95.07 8.27998 94.622 9.09598C94.174 9.91198 93.95 10.824 93.95 11.832Z" fill="white"/>
<path d="M111.212 18L106.004 5.51998H107.276L111.86 16.728L116.468 5.51998H117.668L112.46 18H111.212Z" fill="white"/>
<path d="M123.683 18.24C122.691 18.24 121.771 18.072 120.923 17.736C120.075 17.4 119.331 16.888 118.691 16.2L119.243 15.36C119.931 16.016 120.627 16.496 121.331 16.8C122.035 17.088 122.803 17.232 123.635 17.232C124.707 17.232 125.571 17.008 126.227 16.56C126.899 16.112 127.235 15.488 127.235 14.688C127.235 14.144 127.075 13.728 126.755 13.44C126.451 13.136 126.003 12.896 125.411 12.72C124.835 12.528 124.131 12.328 123.299 12.12C122.451 11.896 121.731 11.664 121.139 11.424C120.563 11.184 120.131 10.872 119.843 10.488C119.555 10.104 119.411 9.58398 119.411 8.92798C119.411 8.11198 119.611 7.43998 120.011 6.91198C120.427 6.36798 120.979 5.96798 121.667 5.71198C122.371 5.43998 123.147 5.30398 123.995 5.30398C124.971 5.30398 125.819 5.46398 126.539 5.78398C127.275 6.10398 127.835 6.52798 128.219 7.05598L127.571 7.82398C127.171 7.31198 126.651 6.93598 126.011 6.69598C125.371 6.43998 124.667 6.31198 123.899 6.31198C123.323 6.31198 122.779 6.39198 122.267 6.55198C121.755 6.71198 121.339 6.97598 121.019 7.34398C120.715 7.69598 120.563 8.17598 120.563 8.78398C120.563 9.26398 120.675 9.63998 120.899 9.91198C121.139 10.184 121.491 10.408 121.955 10.584C122.419 10.744 122.995 10.92 123.683 11.112C124.659 11.352 125.499 11.6 126.203 11.856C126.907 12.112 127.451 12.448 127.835 12.864C128.219 13.264 128.411 13.832 128.411 14.568C128.411 15.704 127.979 16.6 127.115 17.256C126.251 17.912 125.107 18.24 123.683 18.24Z" fill="white"/>
<path d="M140.255 18L135.383 11.328L132.431 14.04V18H131.231V0.47998H132.431V12.696L140.039 5.54398H141.407L136.199 10.608L141.575 18H140.255Z" fill="white"/>
<path d="M143.77 18V5.51998H144.97V18H143.77ZM143.77 2.68798V0.47998H144.97V2.68798H143.77Z" fill="white"/>
<path d="M149.579 22.224C149.835 22.24 150.059 22.24 150.251 22.224C150.459 22.224 150.611 22.192 150.707 22.128C150.851 22.08 150.995 21.952 151.139 21.744C151.299 21.552 151.507 21.16 151.763 20.568C152.019 19.992 152.379 19.136 152.843 18L147.275 5.51998H148.547L153.491 16.728L158.075 5.51998H159.299L152.459 21.936C152.363 22.192 152.227 22.416 152.051 22.608C151.891 22.816 151.691 22.976 151.451 23.088C151.211 23.216 150.923 23.288 150.587 23.304C150.443 23.32 150.291 23.328 150.131 23.328C149.971 23.344 149.787 23.344 149.579 23.328V22.224Z" fill="white"/>
</svg>
